<svg width="734" height="110" viewBox="0 0 734 110" fill="none" xmlns="http://www.w3.org/2000/svg">
<rect x="408.05" y="42.834" width="9.94911" height="41.3039" fill="black"/>
<path d="M418.001 27.1567L408.052 27.1567V31.8298L413.177 37.1058H418.001V27.1567Z" fill="black"/>
<path d="M347.752 84.1378H337.803V42.8339H347.752V46.6025C353.782 39.9698 364.937 39.819 368.856 46.6025C377.75 38.4623 398.1 39.819 398.1 54.4412V84.1378H388.151V56.7024C388.151 48.8637 377.599 48.2607 373.077 55.1949V84.1378H363.128V56.7024C363.128 49.4667 353.028 47.6577 347.752 55.1949V84.1378Z" fill="black"/>
<path fill-rule="evenodd" clip-rule="evenodd" d="M317.909 42.8339H327.858V84.1378H317.909V79.0865C307.808 91.9764 283.385 84.59 283.234 63.6365C283.083 42.6831 307.353 35.5982 317.909 47.1288V42.8339ZM293.485 62.8062C293.485 81.5751 317.604 79.4646 317.604 62.7321C317.604 45.9995 293.484 46.6024 293.485 62.8062Z" fill="black"/>
<path fill-rule="evenodd" clip-rule="evenodd" d="M265.446 42.8339H275.395V80.6707C275.395 108.408 231.679 104.94 231.679 84.1378H241.628C244.342 95.1421 265.446 95.1421 265.446 80.2184V79.1633C255.195 89.4139 231.83 84.2886 231.679 63.3351C231.529 42.3817 254.894 35.7491 265.446 47.2056V42.8339ZM241.628 62.8829C241.629 79.917 265.747 79.6155 265.597 62.8829C265.597 46.6025 241.628 45.8489 241.628 62.8829Z" fill="black"/>
<rect x="211.78" y="42.834" width="9.94911" height="41.3039" fill="black"/>
<path d="M211.78 27.1567H221.729V31.8298L216.604 37.1058H211.78V27.1567Z" fill="black"/>
<path fill-rule="evenodd" clip-rule="evenodd" d="M158.115 84.1386V27.1574H184.948C204.092 27.0066 208.162 53.2641 190.525 59.2938L201.831 77.228V84.1386H193.691L178.767 60.3491H168.064V84.1386H158.115ZM168.064 37.1064V50.4H184.495C193.842 50.4 193.54 37.1064 184.495 37.1064H168.064Z" fill="black"/>
<path d="M32.337 6.875H103.124V103.125L19.6055 19.6065L32.337 6.875Z" fill="url(#paint0_linear)"/>
<path d="M103.124 6.875H32.337L6.87402 32.338V103.125L103.124 6.875Z" fill="url(#paint1_linear)"/>
<path d="M6.87402 32.3379L32.337 32.3379L32.337 6.87493L6.87402 32.3379Z" fill="#8DD5FF"/>
<path d="M471.839 77.206C474.999 77.206 478.027 76.574 480.924 75.31C483.821 73.9933 486.27 72.15 488.271 69.78L493.722 75.31C491.036 78.2593 487.718 80.603 483.768 82.341C479.871 84.0263 475.815 84.869 471.602 84.869C467.547 84.869 463.728 84.1317 460.147 82.657C456.618 81.1823 453.564 79.181 450.983 76.653C448.402 74.0723 446.348 71.044 444.821 67.568C443.346 64.0393 442.609 60.3 442.609 56.35C442.609 52.3473 443.346 48.608 444.821 45.132C446.348 41.656 448.402 38.654 450.983 36.126C453.564 33.5453 456.618 31.5177 460.147 30.043C463.728 28.5683 467.547 27.831 471.602 27.831C475.921 27.831 480.055 28.7 484.005 30.438C488.008 32.1233 491.299 34.4407 493.88 37.39L488.35 43.078C486.243 40.6553 483.715 38.7857 480.766 37.469C477.817 36.1523 474.762 35.494 471.602 35.494C468.705 35.494 465.993 36.0207 463.465 37.074C460.937 38.1273 458.751 39.602 456.908 41.498C455.117 43.3413 453.695 45.5533 452.642 48.134C451.589 50.662 451.062 53.4007 451.062 56.35C451.062 59.2993 451.589 62.0643 452.642 64.645C453.695 67.173 455.144 69.3587 456.987 71.202C458.83 73.0453 461.016 74.52 463.544 75.626C466.125 76.6793 468.89 77.206 471.839 77.206ZM497.53 63.855C497.53 60.9583 498.056 58.246 499.11 55.718C500.216 53.1373 501.717 50.9253 503.613 49.082C505.509 47.186 507.721 45.7113 510.249 44.658C512.829 43.552 515.568 42.999 518.465 42.999C521.361 42.999 524.074 43.552 526.602 44.658C529.182 45.7113 531.394 47.186 533.238 49.082C535.134 50.9253 536.608 53.1373 537.662 55.718C538.768 58.246 539.321 60.9583 539.321 63.855C539.321 66.8043 538.768 69.5693 537.662 72.15C536.608 74.678 535.134 76.89 533.238 78.786C531.394 80.6293 529.182 82.104 526.602 83.21C524.074 84.2633 521.361 84.79 518.465 84.79C515.568 84.79 512.829 84.2633 510.249 83.21C507.721 82.104 505.509 80.6293 503.613 78.786C501.717 76.89 500.216 74.678 499.11 72.15C498.056 69.5693 497.53 66.8043 497.53 63.855ZM518.465 77.838C522.099 77.838 525.18 76.495 527.708 73.809C530.288 71.0703 531.579 67.7523 531.579 63.855C531.579 59.9577 530.288 56.666 527.708 53.98C525.18 51.294 522.099 49.951 518.465 49.951C514.831 49.951 511.723 51.294 509.143 53.98C506.562 56.666 505.272 59.9577 505.272 63.855C505.272 67.7523 506.536 71.0703 509.064 73.809C511.644 76.495 514.778 77.838 518.465 77.838ZM546.793 84V43.789H554.693V47.818C556.273 46.238 558.064 45.053 560.065 44.263C562.119 43.4203 564.357 42.999 566.78 42.999C571.362 42.999 575.128 44.4737 578.077 47.423C581.026 50.3197 582.501 54.0853 582.501 58.72V84H574.601V60.063C574.601 56.903 573.679 54.4277 571.836 52.637C570.045 50.7937 567.649 49.872 564.647 49.872C562.54 49.872 560.618 50.3197 558.88 51.215C557.195 52.1103 555.799 53.4007 554.693 55.086V84H546.793ZM587.824 78.786L592.09 73.572C594.197 75.2047 596.33 76.4687 598.489 77.364C600.701 78.2067 602.939 78.628 605.204 78.628C608.048 78.628 610.365 78.075 612.156 76.969C613.947 75.863 614.842 74.4147 614.842 72.624C614.842 71.202 614.315 70.0697 613.262 69.227C612.209 68.3843 610.576 67.805 608.364 67.489L601.096 66.462C597.146 65.8827 594.144 64.6713 592.09 62.828C590.089 60.932 589.088 58.4303 589.088 55.323C589.088 51.689 590.536 48.766 593.433 46.554C596.33 44.2893 600.122 43.157 604.809 43.157C607.758 43.157 610.55 43.5783 613.183 44.421C615.869 45.2637 618.476 46.554 621.004 48.292L616.975 53.506C614.763 52.0313 612.604 50.978 610.497 50.346C608.443 49.6613 606.363 49.319 604.256 49.319C601.833 49.319 599.885 49.8193 598.41 50.82C596.935 51.8207 596.198 53.1373 596.198 54.77C596.198 56.2447 596.698 57.377 597.699 58.167C598.752 58.9043 600.464 59.4573 602.834 59.826L610.102 60.853C614.052 61.4323 617.054 62.67 619.108 64.566C621.215 66.462 622.268 68.9637 622.268 72.071C622.268 73.8617 621.82 75.547 620.925 77.127C620.082 78.6543 618.897 79.971 617.37 81.077C615.895 82.183 614.131 83.0783 612.077 83.763C610.023 84.395 607.811 84.711 605.441 84.711C601.965 84.711 598.7 84.2107 595.645 83.21C592.643 82.2093 590.036 80.7347 587.824 78.786ZM626.907 63.855C626.907 60.9583 627.434 58.246 628.487 55.718C629.593 53.1373 631.094 50.9253 632.99 49.082C634.886 47.186 637.098 45.7113 639.626 44.658C642.207 43.552 644.946 42.999 647.842 42.999C650.739 42.999 653.451 43.552 655.979 44.658C658.56 45.7113 660.772 47.186 662.615 49.082C664.511 50.9253 665.986 53.1373 667.039 55.718C668.145 58.246 668.698 60.9583 668.698 63.855C668.698 66.8043 668.145 69.5693 667.039 72.15C665.986 74.678 664.511 76.89 662.615 78.786C660.772 80.6293 658.56 82.104 655.979 83.21C653.451 84.2633 650.739 84.79 647.842 84.79C644.946 84.79 642.207 84.2633 639.626 83.21C637.098 82.104 634.886 80.6293 632.99 78.786C631.094 76.89 629.593 74.678 628.487 72.15C627.434 69.5693 626.907 66.8043 626.907 63.855ZM647.842 77.838C651.476 77.838 654.557 76.495 657.085 73.809C659.666 71.0703 660.956 67.7523 660.956 63.855C660.956 59.9577 659.666 56.666 657.085 53.98C654.557 51.294 651.476 49.951 647.842 49.951C644.208 49.951 641.101 51.294 638.52 53.98C635.94 56.666 634.649 59.9577 634.649 63.855C634.649 67.7523 635.913 71.0703 638.441 73.809C641.022 76.495 644.156 77.838 647.842 77.838ZM684.071 26.962V84H676.171V28.7L684.071 26.962ZM728.214 79.418C725.897 81.2087 723.474 82.5517 720.946 83.447C718.418 84.2897 715.653 84.711 712.651 84.711C709.702 84.711 706.937 84.1843 704.356 83.131C701.775 82.025 699.537 80.5503 697.641 78.707C695.745 76.8637 694.244 74.678 693.138 72.15C692.085 69.5693 691.558 66.8043 691.558 63.855C691.558 60.9583 692.085 58.246 693.138 55.718C694.191 53.19 695.613 51.0043 697.404 49.161C699.195 47.3177 701.328 45.8693 703.803 44.816C706.278 43.71 708.912 43.157 711.703 43.157C714.442 43.157 716.996 43.71 719.366 44.816C721.789 45.8693 723.843 47.344 725.528 49.24C727.266 51.0833 728.635 53.2953 729.636 55.876C730.637 58.4567 731.137 61.2217 731.137 64.171V66.462H699.379C699.906 69.78 701.433 72.545 703.961 74.757C706.489 76.9163 709.491 77.996 712.967 77.996C714.916 77.996 716.785 77.68 718.576 77.048C720.367 76.416 721.894 75.547 723.158 74.441L728.214 79.418ZM711.545 49.793C708.543 49.793 705.91 50.7937 703.645 52.795C701.433 54.7963 700.037 57.377 699.458 60.537H723.316C722.737 57.4823 721.341 54.928 719.129 52.874C716.97 50.82 714.442 49.793 711.545 49.793Z" fill="#3386E4"/>
<defs>
<linearGradient id="paint0_linear" x1="61.3647" y1="6.875" x2="61.3647" y2="103.125" gradientUnits="userSpaceOnUse">
<stop stop-color="#0E68CC"/>
<stop offset="0.337643" stop-color="#277DDD"/>
<stop offset="1" stop-color="#3689E6"/>
</linearGradient>
<linearGradient id="paint1_linear" x1="19.3509" y1="19.8611" x2="52.962" y2="55.2546" gradientUnits="userSpaceOnUse">
<stop stop-color="#34A5FF"/>
<stop offset="0.774612" stop-color="#54B1FC"/>
<stop offset="1" stop-color="#64BAFF"/>
</linearGradient>
</defs>
</svg>
