<svg width="825" height="150" viewBox="0 0 825 150" fill="none" xmlns="http://www.w3.org/2000/svg">
<g clip-path="url(#clip0_999_228)">
<rect x="399.671" y="48.4276" width="12.3291" height="51.1843" fill="black"/>
<path d="M412 29L399.671 29V34.7909L406.022 41.3291H412V29Z" fill="black"/>
<path d="M324.949 99.612H312.62V48.4277H324.949V53.0978C332.421 44.8784 346.245 44.6916 351.102 53.0978C362.123 43.0104 387.342 44.6916 387.342 62.8116V99.612H375.013V65.6137C375.013 55.8999 361.936 55.1526 356.332 63.7456V99.612H344.003V65.6137C344.003 56.6471 331.487 54.4054 324.949 63.7456V99.612Z" fill="black"/>
<path fill-rule="evenodd" clip-rule="evenodd" d="M287.967 48.4276H300.296V99.6119H287.967V93.3523C275.45 109.326 245.185 100.172 244.998 74.2065C244.811 48.2407 274.887 39.461 287.967 53.7499V48.4276ZM257.701 73.1775C257.701 96.4362 287.589 93.8209 287.589 73.0857C287.589 52.3504 257.7 53.0977 257.701 73.1775Z" fill="black"/>
<path fill-rule="evenodd" clip-rule="evenodd" d="M222.955 48.4276H235.284V95.3154C235.284 129.687 181.111 125.391 181.111 99.6119H193.44C196.803 113.249 222.955 113.249 222.955 94.755V93.4474C210.252 106.15 181.298 99.7988 181.111 73.833C180.925 47.8672 209.878 39.648 222.955 53.845V48.4276ZM193.44 73.2726C193.44 94.3815 223.329 94.0078 223.142 73.2726C223.142 53.0977 193.44 52.1638 193.44 73.2726Z" fill="black"/>
<rect x="156.452" y="48.4276" width="12.3291" height="51.1843" fill="black"/>
<path d="M156.452 29H168.781V34.7909L162.43 41.3291H156.452V29Z" fill="black"/>
<path d="M113.861 48.4276V99.6119H126.19V71.9649C126.19 67.6684 130.113 58.1414 140.761 58.1414H144.123V48.4276H135.904C132.541 48.4276 128.432 49.922 126.19 54.4053V48.4276H113.861Z" fill="black"/>
<rect width="85" height="84" transform="translate(0 33)" fill="white"/>
<rect x="5.3125" y="38.25" width="74.375" height="73.5" fill="#92ECE1"/>
<path d="M42.5 75L79.6875 111.75V38.25L42.5 75Z" fill="#46C6B6"/>
<path d="M42.5 75L79.6875 38.25L5.3125 38.25L42.5 75Z" fill="#54DECD"/>
<path d="M494.005 101.425C488.748 101.425 484.283 100.253 480.61 97.91C476.937 95.5667 474.118 92.3525 472.155 88.2675C470.223 84.1825 469.242 79.5433 469.21 74.35C469.242 69.0617 470.255 64.3908 472.25 60.3375C474.245 56.2525 477.095 53.0542 480.8 50.7425C484.505 48.4308 488.954 47.275 494.148 47.275C499.753 47.275 504.534 48.6683 508.493 51.455C512.483 54.2417 515.111 58.0575 516.378 62.9025L506.498 65.7525C505.516 62.8708 503.901 60.6383 501.653 59.055C499.436 57.44 496.887 56.6325 494.005 56.6325C490.743 56.6325 488.068 57.4083 485.978 58.96C483.888 60.48 482.336 62.57 481.323 65.23C480.309 67.89 479.787 70.93 479.755 74.35C479.787 79.6383 480.99 83.9133 483.365 87.175C485.772 90.4367 489.318 92.0675 494.005 92.0675C497.203 92.0675 499.784 91.3392 501.748 89.8825C503.743 88.3942 505.263 86.2725 506.308 83.5175L516.378 85.8925C514.699 90.8958 511.928 94.7433 508.065 97.435C504.202 100.095 499.515 101.425 494.005 101.425ZM546.94 101.425C541.81 101.425 537.361 100.269 533.593 97.9575C529.824 95.6458 526.911 92.4633 524.853 88.41C522.826 84.325 521.813 79.6225 521.813 74.3025C521.813 68.9508 522.858 64.2483 524.948 60.195C527.038 56.11 529.967 52.9433 533.735 50.695C537.504 48.415 541.905 47.275 546.94 47.275C552.07 47.275 556.519 48.4308 560.288 50.7425C564.056 53.0542 566.969 56.2367 569.028 60.29C571.086 64.3433 572.115 69.0142 572.115 74.3025C572.115 79.6542 571.07 84.3725 568.98 88.4575C566.922 92.5108 564.009 95.6933 560.24 98.005C556.472 100.285 552.039 101.425 546.94 101.425ZM546.94 92.0675C551.849 92.0675 555.506 90.4208 557.913 87.1275C560.351 83.8025 561.57 79.5275 561.57 74.3025C561.57 68.9508 560.335 64.6758 557.865 61.4775C555.427 58.2475 551.785 56.6325 546.94 56.6325C543.615 56.6325 540.876 57.3925 538.723 58.9125C536.569 60.4008 534.97 62.475 533.925 65.135C532.88 67.7633 532.358 70.8192 532.358 74.3025C532.358 79.6858 533.593 83.9925 536.063 87.2225C538.533 90.4525 542.159 92.0675 546.94 92.0675ZM618.558 100V74.7775C618.558 72.7825 618.384 70.74 618.036 68.65C617.719 66.5283 617.086 64.565 616.136 62.76C615.217 60.955 613.903 59.4983 612.193 58.39C610.515 57.2817 608.314 56.7275 605.591 56.7275C603.817 56.7275 602.139 57.0283 600.556 57.63C598.972 58.2 597.579 59.1342 596.376 60.4325C595.204 61.7308 594.27 63.4408 593.573 65.5625C592.908 67.6842 592.576 70.265 592.576 73.305L586.401 70.9775C586.401 66.3225 587.272 62.2217 589.013 58.675C590.755 55.0967 593.257 52.31 596.518 50.315C599.78 48.32 603.722 47.3225 608.346 47.3225C611.892 47.3225 614.869 47.8925 617.276 49.0325C619.682 50.1725 621.63 51.6767 623.118 53.545C624.638 55.3817 625.794 57.3925 626.586 59.5775C627.377 61.7625 627.916 63.9 628.201 65.99C628.486 68.08 628.628 69.9167 628.628 71.5V100H618.558ZM582.506 100V48.7H591.388V63.52H592.576V100H582.506ZM660.618 101.378C654.38 101.378 649.297 100 645.371 97.245C641.444 94.49 639.037 90.6108 638.151 85.6075L648.316 84.04C648.949 86.7 650.406 88.8058 652.686 90.3575C654.997 91.8775 657.863 92.6375 661.283 92.6375C664.386 92.6375 666.809 92.0042 668.551 90.7375C670.324 89.4708 671.211 87.7292 671.211 85.5125C671.211 84.2142 670.894 83.1692 670.261 82.3775C669.659 81.5542 668.376 80.7783 666.413 80.05C664.45 79.3217 661.457 78.4192 657.436 77.3425C653.034 76.2025 649.535 74.9833 646.938 73.685C644.373 72.355 642.536 70.8192 641.428 69.0775C640.351 67.3042 639.813 65.1667 639.813 62.665C639.813 59.5617 640.636 56.8542 642.283 54.5425C643.93 52.2308 646.241 50.4417 649.218 49.175C652.226 47.9083 655.741 47.275 659.763 47.275C663.69 47.275 667.189 47.8925 670.261 49.1275C673.332 50.3625 675.818 52.12 677.718 54.4C679.618 56.6483 680.758 59.2925 681.138 62.3325L670.973 64.185C670.625 61.715 669.469 59.7675 667.506 58.3425C665.542 56.9175 662.993 56.1417 659.858 56.015C656.85 55.8883 654.411 56.395 652.543 57.535C650.675 58.6433 649.741 60.1792 649.741 62.1425C649.741 63.2825 650.089 64.2483 650.786 65.04C651.514 65.8317 652.907 66.5917 654.966 67.32C657.024 68.0483 660.064 68.9192 664.086 69.9325C668.392 71.0408 671.812 72.2758 674.346 73.6375C676.879 74.9675 678.684 76.5667 679.761 78.435C680.869 80.2717 681.423 82.5042 681.423 85.1325C681.423 90.1992 679.571 94.1733 675.866 97.055C672.192 99.9367 667.11 101.378 660.618 101.378ZM714.211 101.425C709.081 101.425 704.632 100.269 700.863 97.9575C697.095 95.6458 694.182 92.4633 692.123 88.41C690.097 84.325 689.083 79.6225 689.083 74.3025C689.083 68.9508 690.128 64.2483 692.218 60.195C694.308 56.11 697.237 52.9433 701.006 50.695C704.774 48.415 709.176 47.275 714.211 47.275C719.341 47.275 723.79 48.4308 727.558 50.7425C731.327 53.0542 734.24 56.2367 736.298 60.29C738.357 64.3433 739.386 69.0142 739.386 74.3025C739.386 79.6542 738.341 84.3725 736.251 88.4575C734.192 92.5108 731.279 95.6933 727.511 98.005C723.742 100.285 719.309 101.425 714.211 101.425ZM714.211 92.0675C719.119 92.0675 722.777 90.4208 725.183 87.1275C727.622 83.8025 728.841 79.5275 728.841 74.3025C728.841 68.9508 727.606 64.6758 725.136 61.4775C722.697 58.2475 719.056 56.6325 714.211 56.6325C710.886 56.6325 708.147 57.3925 705.993 58.9125C703.84 60.4008 702.241 62.475 701.196 65.135C700.151 67.7633 699.628 70.8192 699.628 74.3025C699.628 79.6858 700.863 83.9925 703.333 87.2225C705.803 90.4525 709.429 92.0675 714.211 92.0675ZM750.774 100V30.175H760.701V100H750.774ZM797.718 101.425C792.62 101.425 788.139 100.317 784.275 98.1C780.444 95.8517 777.451 92.7325 775.298 88.7425C773.176 84.7208 772.115 80.0658 772.115 74.7775C772.115 69.1725 773.16 64.3117 775.25 60.195C777.372 56.0783 780.317 52.8958 784.085 50.6475C787.854 48.3992 792.24 47.275 797.243 47.275C802.468 47.275 806.917 48.4942 810.59 50.9325C814.264 53.3392 817.003 56.775 818.808 61.24C820.645 65.705 821.373 71.0092 820.993 77.1525H811.065V73.5425C811.002 67.5892 809.862 63.1875 807.645 60.3375C805.46 57.4875 802.12 56.0625 797.623 56.0625C792.651 56.0625 788.915 57.63 786.413 60.765C783.911 63.9 782.66 68.4283 782.66 74.35C782.66 79.9867 783.911 84.3567 786.413 87.46C788.915 90.5317 792.525 92.0675 797.243 92.0675C800.346 92.0675 803.022 91.3708 805.27 89.9775C807.55 88.5525 809.324 86.5258 810.59 83.8975L820.328 86.985C818.333 91.5767 815.309 95.1392 811.255 97.6725C807.202 100.174 802.69 101.425 797.718 101.425ZM779.43 77.1525V69.41H816.053V77.1525H779.43Z" fill="#46C6B6"/>
</g>
<defs>
<clipPath id="clip0_999_228">
<rect width="825" height="150" fill="white"/>
</clipPath>
</defs>
</svg>
